<svg width="22" height="18" viewBox="0 0 22 18" fill="none" xmlns="http://www.w3.org/2000/svg">
<path opacity="0.9" fill-rule="evenodd" clip-rule="evenodd" d="M10.6823 4.98L10.7299 5.74697L9.93513 5.65306C7.04202 5.29305 4.51452 4.07216 2.36854 2.02169L1.31939 1.00428L1.04915 1.75559C0.476886 3.43041 0.842499 5.19914 2.03472 6.38872C2.67056 7.04613 2.5275 7.14004 1.43066 6.74873C1.04915 6.62351 0.71533 6.5296 0.683537 6.57655C0.572264 6.68612 0.953773 8.1105 1.2558 8.67398C1.6691 9.45661 2.5116 10.2236 3.43358 10.6775L4.2125 11.0375L3.29052 11.0532C2.40033 11.0532 2.36854 11.0688 2.46391 11.3975C2.78184 12.4149 4.03764 13.4949 5.4365 13.9645L6.42207 14.2932L5.56367 14.7941C4.29198 15.5141 2.79773 15.9211 1.30349 15.9524C0.58816 15.968 0 16.0306 0 16.0776C0 16.2341 1.93934 17.1107 3.06797 17.455C6.45386 18.4724 10.4756 18.0342 13.4959 16.2967C15.6419 15.0602 17.7879 12.6028 18.7893 10.2236C19.3298 8.95573 19.8703 6.63916 19.8703 5.52784C19.8703 4.80783 19.918 4.71391 20.8081 3.85302C21.3327 3.35215 21.8255 2.80431 21.9209 2.64778C22.0798 2.35039 22.0639 2.35039 21.2532 2.61648C19.9021 3.08605 19.7113 3.02344 20.3789 2.31908C20.8717 1.8182 21.4599 0.910361 21.4599 0.644269C21.4599 0.597311 21.2214 0.675574 20.9512 0.816446C20.6651 0.972971 20.0292 1.20776 19.5523 1.34863L18.6939 1.61472L17.915 1.09819C17.4858 0.816446 16.8818 0.503397 16.5639 0.409482C15.7531 0.190347 14.5132 0.221652 13.782 0.472092C11.795 1.17645 10.5392 2.99214 10.6823 4.98Z" fill="black"/>
</svg>
