<svg width="13" height="23" viewBox="0 0 13 23" fill="none" xmlns="http://www.w3.org/2000/svg">
<path fill-rule="evenodd" clip-rule="evenodd" d="M6.49982 11.5868C9.69434 11.5868 12.2922 9.04931 12.2922 5.92944C12.2922 2.80794 9.69461 0.269409 6.49982 0.269409C3.30558 0.269409 0.707429 2.80822 0.707429 5.92944C0.707429 9.04931 3.30558 11.5868 6.49982 11.5868ZM6.49981 3.58622C7.82232 3.58622 8.89807 4.63728 8.89807 5.92944C8.89807 7.22052 7.82204 8.27158 6.49981 8.27158C5.17814 8.27158 4.10211 7.22052 4.10211 5.92944C4.10183 4.63701 5.17842 3.58622 6.49981 3.58622ZM12.7392 12.5563C13.2382 13.3313 12.9998 14.3548 12.2066 14.8424C11.1719 15.4779 10.0348 15.9379 8.8432 16.203L12.0807 19.3679C12.3995 19.6784 12.5787 20.1002 12.5787 20.54C12.5787 20.9799 12.3995 21.4016 12.0807 21.7122C11.7628 22.0232 11.3314 22.198 10.8816 22.198C10.4317 22.198 10.0003 22.0232 9.68245 21.7122L6.49929 18.6032L3.31806 21.7119C2.88941 22.1309 2.26455 22.2946 1.67887 22.1414C1.09319 21.9881 0.635659 21.5413 0.478631 20.9691C0.321604 20.3969 0.488934 19.7863 0.917588 19.3673L4.15565 16.203C2.96431 15.9376 1.82739 15.4776 0.792824 14.8424C-5.35743e-05 14.3545 -0.238122 13.3311 0.261049 12.5563C0.500309 12.1837 0.881401 11.9194 1.32031 11.8216C1.75922 11.7239 2.2199 11.8007 2.6008 12.0351C4.97189 13.4917 8.02613 13.4928 10.3992 12.0351C10.7801 11.8007 11.2408 11.724 11.6798 11.8217C12.1187 11.9195 12.4998 12.1838 12.7392 12.5563Z" fill="black"/>
</svg>
