<svg width="24" height="15" viewBox="0 0 24 15" fill="none" xmlns="http://www.w3.org/2000/svg">
<path d="M23.0582 0.869546H19.1637C18.8398 0.869546 18.5421 1.05204 18.389 1.34444C18.389 1.34444 16.8357 4.27582 16.3367 5.26319C14.9944 7.91929 14.1253 7.08543 14.1253 5.85275V1.60232C14.1253 0.862723 13.5401 0.263097 12.8184 0.263097H9.89016C9.07937 0.201355 8.2952 0.574196 7.81774 1.24858C7.81774 1.24858 9.30462 1.00218 9.30462 3.05519C9.30462 3.56431 9.3302 5.02884 9.3535 6.25714C9.36254 6.62794 9.14489 6.96508 8.8084 7.10169C8.47196 7.23825 8.08804 7.1453 7.84681 6.86882C6.64826 5.16062 5.65543 3.31029 4.88996 1.35808C4.75575 1.05989 4.46431 0.869091 4.1438 0.869546H0.605351C0.407784 0.868181 0.222145 0.966366 0.108798 1.13215C-0.00454908 1.29799 -0.0311798 1.51033 0.0376163 1.70011C1.11206 4.72024 5.74043 14.211 11.0233 14.211H13.2468C13.732 14.211 14.1253 13.808 14.1253 13.3108V11.935C14.1253 11.5822 14.3298 11.2632 14.6458 11.1231C14.9617 10.9831 15.3287 11.0488 15.5795 11.2903L18.241 13.8527C18.48 14.0829 18.7956 14.211 19.1235 14.211H22.6185C24.3041 14.211 24.3041 13.0124 23.3851 12.085C22.7383 11.4322 20.4044 8.91132 20.4044 8.91132C19.9914 8.47293 19.9521 7.79149 20.3117 7.30619C21.066 6.28887 22.2999 4.62365 22.8232 3.91026C23.5385 2.93518 24.8331 0.869546 23.0582 0.869546Z" fill="black"/>
</svg>
